<svg width="121" height="40" viewBox="0 0 121 40" fill="none" xmlns="http://www.w3.org/2000/svg">
<g clip-path="url(#clip0_5854_6548)">
<path d="M12.6032 28.3696C10.3243 28.3696 9.22946 26.6153 9.79943 24.5844C10.9799 20.3777 18.569 14.1428 23.7364 14.1428C27.5097 14.1428 27.2225 17.5203 25.0144 20.4017L23.7898 21.7575C19.4096 26.0665 15.3435 28.3687 12.6032 28.3687M31.0833 0C24.4831 0.00368927 17.2154 4.04621 12.6539 7.87475L13.0139 8.39863C20.0965 3.42549 29.9259 0.189998 32.6367 5.04139C34.0666 7.60082 31.6367 12.7695 28.2178 16.8554C29.0373 15.0504 28.4968 11.588 23.7281 11.588C15.7965 11.588 0.191986 22.1107 0.191986 32.8733C0.191986 37.1888 3.17624 40 8.0969 40C21.2641 40 39.1263 18.3781 39.1263 7.51689C39.1254 3.68189 36.922 0 31.0824 0" fill="#001E62"/>
<path d="M48.0349 28.3676C47.2697 28.3676 46.6316 28.0983 46.2348 27.6113C45.8167 27.0976 45.6924 26.3717 45.8922 25.6209C46.3278 23.9912 48.0809 22.7147 49.882 22.7147H54.1194L52.6075 28.3676H48.0358H48.0349ZM60.2187 11.4154C59.0042 9.92215 57.0429 9.25439 55.6387 9.25439H47.9355L46.6298 14.1381H53.892L54.589 14.2128C54.5955 14.2128 55.2584 14.2884 55.6212 14.7865C55.9223 15.1997 55.9647 15.8176 55.7492 16.6237L55.4058 17.9094H50.8313C46.8904 17.9094 41.4007 20.74 40.1779 25.3129C39.5683 27.5919 40.1024 29.5675 41.2856 31.0193C42.4596 32.4599 44.6722 33.2531 47.0644 33.2531H51.3009V33.2549H56.6875L61.0741 16.8561C61.8034 14.1242 61.0133 12.3903 60.2196 11.4163" fill="#001E62"/>
<path d="M113.124 9.25342C111.041 9.25342 109.105 9.87137 107.529 11.0399C105.939 12.2196 105.062 13.6372 104.539 15.5907C103.407 19.8269 106.729 21.8707 109.401 23.3197C111.316 24.3582 112.969 25.2547 112.614 26.5828C112.359 27.5365 111.945 28.3685 109.589 28.3685H102.397L101.091 33.2531H109.051C111.188 33.2531 113.156 32.8076 114.744 31.5883C116.335 30.3616 117.232 28.6553 117.789 26.5727C118.319 24.5897 117.96 22.699 116.688 21.2832C115.627 20.1008 114.099 19.2753 112.752 18.5467C111.029 17.6179 109.406 16.7408 109.69 15.6764C109.863 15.0345 110.502 14.1371 111.892 14.1371H118.884L120.193 9.25342H113.125H113.124Z" fill="#001E62"/>
<path d="M71.385 9.25342C69.3004 9.25342 67.3649 9.87137 65.7903 11.0399C64.1992 12.2196 63.3236 13.6372 62.7996 15.5907C61.6671 19.8269 64.9911 21.8707 67.6614 23.3197C69.5766 24.3582 71.2294 25.2547 70.8749 26.5828C70.6189 27.5365 70.2046 28.3685 67.8483 28.3685H60.657L59.3495 33.2531H67.3096C69.4486 33.2531 71.4163 32.8076 73.0028 31.5883C74.5939 30.3616 75.4898 28.6553 76.0469 26.5727C76.5782 24.5897 76.2173 22.699 74.9475 21.2832C73.8849 20.1008 72.3564 19.2753 71.0102 18.5467C69.2893 17.6179 67.6641 16.7408 67.9496 15.6764C68.1199 15.0345 68.7617 14.1371 70.1512 14.1371H77.1427L78.452 9.25342H71.3841H71.385Z" fill="#001E62"/>
<path d="M82.2475 9.25342L76.0037 33.2531H81.2761L87.518 9.25342H82.2475Z" fill="#001E62"/>
<path d="M101.551 9.25342C92.2638 9.28662 87.4057 15.4818 85.8625 21.2528C84.0329 28.0945 87.6709 33.2531 94.3208 33.2531H98.7792L100.085 28.3685H95.6292C93.1394 28.3685 89.7169 26.4058 91.0944 21.2537C92.191 17.1577 96.1762 14.138 100.554 14.138H103.382L104.69 9.25434H101.551V9.25342Z" fill="#001E62"/>
</g>
<defs>
<clipPath id="clip0_5854_6548">
<rect width="120" height="40" fill="white" transform="translate(0.191986)"/>
</clipPath>
</defs>
</svg>
